PathFileType	4	(X/Y/Z)	c:/Users/goper/Files/vsCode/490R/osim_files/C04/C04_Fast_01.trc
DataRate	CameraRate	NumFrames	NumMarkers	Units                	OrigDataRate	OrigDataStartFrame	OrigNumFrames
250.00	250.00	4	36	mm	250.0	1187	2373
                Frame#	Time	LPSIS			LASIS			LTH1			LTH2			LTH3			LTH4			LLFE			LMFE			LSH1			LSH2			LSH3			LSH4			LLMAL			LMMAL			LCAL			LMTP5			LTOE			LMTP1			RPSIS			RASIS			RTH1			RTH2			RTH3			RTH4			RLFE			RMFE			RSH1			RSH2			RSH3			RSH4			RLMAL			RMMAL			RCAL			RMTP1			RTOE			RMTP5		
		X1	Y1	Z1	X2	Y2	Z2	X3	Y3	Z3	X4	Y4	Z4	X5	Y5	Z5	X6	Y6	Z6	X7	Y7	Z7	X8	Y8	Z8	X9	Y9	Z9	X10	Y10	Z10	X11	Y11	Z11	X12	Y12	Z12	X13	Y13	Z13	X14	Y14	Z14	X15	Y15	Z15	X16	Y16	Z16	X17	Y17	Z17	X18	Y18	Z18	X19	Y19	Z19	X20	Y20	Z20	X21	Y21	Z21	X22	Y22	Z22	X23	Y23	Z23	X24	Y24	Z24	X25	Y25	Z25	X26	Y26	Z26	X27	Y27	Z27	X28	Y28	Z28	X29	Y29	Z29	X30	Y30	Z30	X31	Y31	Z31	X32	Y32	Z32	X33	Y33	Z33	X34	Y34	Z34	X35	Y35	Z35	X36	Y36	Z36

1187	4.74400	-508.04276	972.36536	234.23143	-669.41241	957.99463	321.08905	-608.87732	695.57941	363.48892	-636.77429	639.66840	351.09799	-664.74152	728.41986	374.58926	-703.16516	676.60559	361.08386	-747.64978	475.97519	330.36057	-765.62408	459.17566	215.74321	-656.59009	430.50598	326.07565	-620.51227	399.12482	320.68463	-693.37170	395.18436	339.77014	-663.54358	359.39371	337.17047	-485.92282	194.22398	306.88852	-519.80560	197.64529	220.49707	-429.16248	211.69928	243.29254	-551.19183	69.65635	338.58795	-595.65778	72.03088	293.21350	-565.97504	64.63168	235.45763	-513.10370	980.35840	159.51491	-690.02563	963.36023	107.13979	-603.23419	732.99695	18.80014	-605.61780	672.15350	33.02494	-665.54834	744.82507	31.66584	0.00000	0.00000	0.00000	-655.80316	461.34158	89.33482	-635.01434	463.29349	200.01337	-574.29419	337.14050	68.27805	-571.53271	292.10086	75.32816	0.00000	0.00000	0.00000	-623.05762	282.13223	84.62410	-548.50665	85.22496	107.92113	-547.52240	96.55788	199.41385	-478.13120	60.60758	146.97351	-667.22626	27.37223	211.65572	-703.99017	44.81550	174.83643	-677.01373	18.50527	109.39929
1188	4.74800	-513.02606	972.90540	234.53378	-674.75409	958.79883	320.58145	-615.52100	696.47369	364.17685	-643.37543	641.04755	351.87140	-671.18414	729.79688	374.96310	-710.10309	678.12164	361.32153	-756.13873	477.89465	330.55518	-773.59912	461.46869	216.46310	-665.28766	430.48236	326.11978	-630.02856	398.31915	320.61865	-702.94348	395.91824	339.90262	-673.98035	359.44455	337.23007	-500.93179	189.68161	306.01572	-534.09515	194.43839	220.32643	-442.81952	206.15158	242.90477	-568.63379	67.43253	338.57013	-613.09778	70.74298	293.33792	0.00000	0.00000	0.00000	-517.85291	980.81799	159.79782	-694.45917	963.36523	106.68820	-606.21161	733.34192	18.81552	-608.33020	672.59308	33.05426	-668.80365	744.77698	31.45837	-681.42676	686.26898	46.64508	-657.30682	461.44537	88.90122	-637.09729	463.38553	199.83421	-575.22644	337.66476	68.13223	-572.52826	292.57343	75.17584	0.00000	0.00000	0.00000	-623.79297	282.57288	84.32751	-548.69696	85.60518	107.88479	-547.89856	96.99989	199.37393	-478.36066	61.20452	146.94754	-667.20911	29.93574	215.03337	-704.13226	44.68250	174.82718	-677.01221	18.44192	109.37470
1189	4.75200	-518.01196	973.41339	234.85179	-681.03137	960.67273	319.48441	-622.19751	697.34442	364.78235	-651.36353	642.73328	352.29733	-677.64026	731.14752	375.27579	-715.94019	679.99524	362.14981	-764.41461	479.82971	330.73666	-781.77679	463.74091	216.93173	-674.16327	430.21686	326.21652	-639.59729	397.28253	320.69241	-712.45844	396.52264	340.09201	-684.35486	359.40002	337.32056	-514.66144	186.19962	306.31921	-548.44489	191.19035	220.15562	-456.91162	200.46791	242.55840	-586.23474	65.45433	339.01251	-630.95581	69.48182	294.35751	0.00000	0.00000	0.00000	-522.51935	981.20636	160.10538	-698.99097	963.80261	105.95014	-609.19940	733.69800	18.90123	-610.92731	672.91467	33.18827	-671.73273	744.87177	31.15255	-684.52966	686.03833	46.59811	-658.90631	461.53384	88.54083	-638.83289	463.53522	199.68571	-576.57654	337.92108	68.07096	-573.51099	292.93066	75.12254	0.00000	0.00000	0.00000	-624.79669	282.74326	84.31313	-548.92474	85.94762	107.84518	0.00000	0.00000	0.00000	-478.61847	61.78620	146.96434	-668.26709	29.95131	216.10776	-704.24445	44.56502	174.79669	-677.06610	18.38089	109.36304
1190	4.75600	-523.11664	973.87866	235.11365	-685.81183	960.75043	318.84476	-629.14795	698.03436	365.29260	-658.46649	643.65778	353.04623	-684.11267	732.45447	375.64221	-721.67456	681.91614	363.06735	-772.57690	481.60669	330.91989	-789.93329	465.83783	217.33936	-682.92310	429.84503	326.41495	-649.01135	396.16382	320.80774	-721.95721	396.98135	340.27774	-694.76050	359.22369	337.41544	-529.08777	182.08499	306.20148	-562.76221	187.87224	219.98798	-471.15915	194.75237	242.27118	-603.91119	62.83405	338.56241	-648.23499	68.69220	293.84497	0.00000	0.00000	0.00000	-527.14288	981.62036	160.43933	-703.32202	963.87122	105.32756	-612.10095	734.07739	18.98785	-613.65552	673.25708	33.29786	-674.90326	744.64978	30.98474	-687.32391	685.99591	46.39675	-660.43127	461.57748	88.37592	-640.77875	463.52737	199.64149	-577.65033	338.35062	67.97105	-574.53851	293.36935	75.04198	0.00000	0.00000	0.00000	-625.84167	282.83771	84.33103	-549.19562	86.27314	107.82923	0.00000	0.00000	0.00000	-478.86469	62.34634	146.98741	-667.56830	28.90779	214.05357	-704.39001	44.45391	174.77881	-677.09125	18.30910	109.36007
